<?xml version="1.0" encoding="UTF-8" standalone="no"?>
<!DOCTYPE svg PUBLIC "-//W3C//DTD SVG 1.1//EN"
 "http://www.w3.org/Graphics/SVG/1.1/DTD/svg11.dtd">
<!-- Generated by graphviz version 2.43.0 (0)
 -->
<!-- Title: graphviz Pages: 1 -->
<svg width="231pt" height="303pt"
 viewBox="0.00 0.00 231.20 303.40" xmlns="http://www.w3.org/2000/svg" xmlns:xlink="http://www.w3.org/1999/xlink">
<g id="graph0" class="graph" transform="scale(1 1) rotate(0) translate(4 299.4)">
<title>graphviz</title>
<polygon fill="white" stroke="transparent" points="-4,4 -4,-299.4 227.2,-299.4 227.2,4 -4,4"/>
<!-- n308281 -->
<g id="node1" class="node">
<title>n308281</title>
<polygon fill="none" stroke="black" points="29,-295.4 0,-295.4 0,-266.4 29,-266.4 29,-295.4"/>
<text text-anchor="middle" x="14.5" y="-277.8" font-family="CMU Serif, Normal" font-size="12.00">0</text>
</g>
<!-- n308281x266809 -->
<g id="node2" class="node">
<title>n308281x266809</title>
<polygon fill="none" stroke="black" points="29,-259.4 0,-259.4 0,-230.4 29,-230.4 29,-259.4"/>
<text text-anchor="middle" x="14.5" y="-241.8" font-family="CMU Serif, Normal" font-size="12.00">1</text>
</g>
<!-- n308281&#45;&gt;n308281x266809 -->
<g id="edge1" class="edge">
<title>n308281&#45;&gt;n308281x266809</title>
<path fill="none" stroke="black" d="M14.5,-266.26C14.5,-264.08 14.5,-261.83 14.5,-259.65"/>
</g>
<!-- n308281x266809xtrig -->
<g id="node3" class="node">
<title>n308281x266809xtrig</title>
<polygon fill="none" stroke="black" points="223.2,-259.4 36.2,-259.4 36.2,-230.4 223.2,-230.4 223.2,-259.4"/>
<text text-anchor="middle" x="129.7" y="-241.8" font-family="CMU Serif, Normal" font-size="12.00">SideDoor.Close</text>
</g>
<!-- n308281x266809&#45;&gt;n308281x266809xtrig -->
<g id="edge2" class="edge">
<title>n308281x266809&#45;&gt;n308281x266809xtrig</title>
<path fill="none" stroke="black" d="M29.09,-244.9C31.27,-244.9 33.64,-244.9 36.16,-244.9"/>
</g>
<!-- n266809 -->
<g id="node4" class="node">
<title>n266809</title>
<polygon fill="black" stroke="black" points="21.5,-217.1 7.5,-217.1 7.5,-215.1 21.5,-215.1 21.5,-217.1"/>
</g>
<!-- n308281x266809&#45;&gt;n266809 -->
<g id="edge3" class="edge">
<title>n308281x266809&#45;&gt;n266809</title>
<path fill="none" stroke="black" d="M14.5,-230.16C14.5,-224.85 14.5,-219.6 14.5,-217.3"/>
</g>
<!-- n266809x349753 -->
<g id="node6" class="node">
<title>n266809x349753</title>
<polygon fill="none" stroke="black" points="29,-201.8 0,-201.8 0,-172.8 29,-172.8 29,-201.8"/>
<text text-anchor="middle" x="14.5" y="-184.2" font-family="CMU Serif, Normal" font-size="12.00">2</text>
</g>
<!-- n266809&#45;&gt;n266809x349753 -->
<g id="edge4" class="edge">
<title>n266809&#45;&gt;n266809x349753</title>
<path fill="none" stroke="black" d="M14.5,-214.86C14.5,-212.54 14.5,-207.27 14.5,-201.95"/>
</g>
<!-- n266809lab -->
<g id="node5" class="node">
<title>n266809lab</title>
<text text-anchor="middle" x="129.7" y="-213" font-family="CMU Serif, Normal" font-size="12.00">SideDoor.Intermediate</text>
</g>
<!-- n266809x349753xtrig -->
<g id="node7" class="node">
<title>n266809x349753xtrig</title>
<polygon fill="none" stroke="black" points="223.2,-201.8 36.2,-201.8 36.2,-172.8 223.2,-172.8 223.2,-201.8"/>
<text text-anchor="middle" x="129.7" y="-184.2" font-family="CMU Serif, Normal" font-size="12.00">SideDoor.Close</text>
</g>
<!-- n266809x349753&#45;&gt;n266809x349753xtrig -->
<g id="edge5" class="edge">
<title>n266809x349753&#45;&gt;n266809x349753xtrig</title>
<path fill="none" stroke="black" d="M29.09,-187.3C31.27,-187.3 33.64,-187.3 36.16,-187.3"/>
</g>
<!-- n349753 -->
<g id="node8" class="node">
<title>n349753</title>
<polygon fill="black" stroke="black" points="21.5,-159.5 7.5,-159.5 7.5,-157.5 21.5,-157.5 21.5,-159.5"/>
</g>
<!-- n266809x349753&#45;&gt;n349753 -->
<g id="edge6" class="edge">
<title>n266809x349753&#45;&gt;n349753</title>
<path fill="none" stroke="black" d="M14.5,-172.56C14.5,-167.25 14.5,-162 14.5,-159.7"/>
</g>
<!-- n349753x351481 -->
<g id="node10" class="node">
<title>n349753x351481</title>
<polygon fill="none" stroke="black" points="29,-144.2 0,-144.2 0,-115.2 29,-115.2 29,-144.2"/>
<text text-anchor="middle" x="14.5" y="-126.6" font-family="CMU Serif, Normal" font-size="12.00">3</text>
</g>
<!-- n349753&#45;&gt;n349753x351481 -->
<g id="edge7" class="edge">
<title>n349753&#45;&gt;n349753x351481</title>
<path fill="none" stroke="black" d="M14.5,-157.26C14.5,-154.94 14.5,-149.67 14.5,-144.35"/>
</g>
<!-- n349753lab -->
<g id="node9" class="node">
<title>n349753lab</title>
<text text-anchor="middle" x="129.7" y="-155.4" font-family="CMU Serif, Normal" font-size="12.00">SideDoor.Closed</text>
</g>
<!-- n349753x351481xtrig -->
<g id="node11" class="node">
<title>n349753x351481xtrig</title>
<polygon fill="none" stroke="black" points="223.2,-144.2 36.2,-144.2 36.2,-115.2 223.2,-115.2 223.2,-144.2"/>
<text text-anchor="middle" x="129.7" y="-126.6" font-family="CMU Serif, Normal" font-size="12.00">AuxiliaryDrives.TurnOn</text>
</g>
<!-- n349753x351481&#45;&gt;n349753x351481xtrig -->
<g id="edge8" class="edge">
<title>n349753x351481&#45;&gt;n349753x351481xtrig</title>
<path fill="none" stroke="black" d="M29.09,-129.7C31.27,-129.7 33.64,-129.7 36.16,-129.7"/>
</g>
<!-- n351481 -->
<g id="node12" class="node">
<title>n351481</title>
<polygon fill="black" stroke="black" points="21.5,-101.9 7.5,-101.9 7.5,-99.9 21.5,-99.9 21.5,-101.9"/>
</g>
<!-- n349753x351481&#45;&gt;n351481 -->
<g id="edge9" class="edge">
<title>n349753x351481&#45;&gt;n351481</title>
<path fill="none" stroke="black" d="M14.5,-114.96C14.5,-109.65 14.5,-104.4 14.5,-102.1"/>
</g>
<!-- n351481x361849 -->
<g id="node14" class="node">
<title>n351481x361849</title>
<polygon fill="none" stroke="black" points="29,-86.6 0,-86.6 0,-57.6 29,-57.6 29,-86.6"/>
<text text-anchor="middle" x="14.5" y="-69" font-family="CMU Serif, Normal" font-size="12.00">4</text>
</g>
<!-- n351481&#45;&gt;n351481x361849 -->
<g id="edge10" class="edge">
<title>n351481&#45;&gt;n351481x361849</title>
<path fill="none" stroke="black" d="M14.5,-99.66C14.5,-97.34 14.5,-92.07 14.5,-86.75"/>
</g>
<!-- n351481lab -->
<g id="node13" class="node">
<title>n351481lab</title>
<text text-anchor="middle" x="129.7" y="-97.8" font-family="CMU Serif, Normal" font-size="12.00">AuxiliaryDrives.On</text>
</g>
<!-- n351481x361849xtrig -->
<g id="node15" class="node">
<title>n351481x361849xtrig</title>
<polygon fill="none" stroke="black" points="223.2,-86.6 36.2,-86.6 36.2,-57.6 223.2,-57.6 223.2,-86.6"/>
<text text-anchor="middle" x="129.7" y="-69" font-family="CMU Serif, Normal" font-size="12.00">NumericalControl.Start</text>
</g>
<!-- n351481x361849&#45;&gt;n351481x361849xtrig -->
<g id="edge11" class="edge">
<title>n351481x361849&#45;&gt;n351481x361849xtrig</title>
<path fill="none" stroke="black" d="M29.09,-72.1C31.27,-72.1 33.64,-72.1 36.16,-72.1"/>
</g>
<!-- n361849 -->
<g id="node16" class="node">
<title>n361849</title>
<polygon fill="black" stroke="black" points="21.5,-44.3 7.5,-44.3 7.5,-42.3 21.5,-42.3 21.5,-44.3"/>
</g>
<!-- n351481x361849&#45;&gt;n361849 -->
<g id="edge12" class="edge">
<title>n351481x361849&#45;&gt;n361849</title>
<path fill="none" stroke="black" d="M14.5,-57.36C14.5,-52.05 14.5,-46.8 14.5,-44.5"/>
</g>
<!-- n372217 -->
<g id="node18" class="node">
<title>n372217</title>
<polygon fill="black" stroke="black" points="21.5,-15.5 7.5,-15.5 7.5,-13.5 21.5,-13.5 21.5,-15.5"/>
</g>
<!-- n361849&#45;&gt;n372217 -->
<g id="edge13" class="edge">
<title>n361849&#45;&gt;n372217</title>
<path fill="none" stroke="black" d="M14.5,-42.06C14.5,-37.33 14.5,-20.37 14.5,-15.7"/>
</g>
<!-- n361849lab -->
<g id="node17" class="node">
<title>n361849lab</title>
<text text-anchor="middle" x="129.7" y="-40.2" font-family="CMU Serif, Normal" font-size="12.00">NumericalControl.Running</text>
</g>
<!-- n372217lab -->
<g id="node19" class="node">
<title>n372217lab</title>
<text text-anchor="middle" x="129.7" y="-11.4" font-family="CMU Serif, Normal" font-size="12.00">NumericalControl.Finished</text>
</g>
</g>
</svg>
