<?xml version="1.0" encoding="UTF-8" standalone="no"?>
<!DOCTYPE svg PUBLIC "-//W3C//DTD SVG 1.1//EN"
 "http://www.w3.org/Graphics/SVG/1.1/DTD/svg11.dtd">
<!-- Generated by graphviz version 2.43.0 (0)
 -->
<!-- Title: graphviz Pages: 1 -->
<svg width="231pt" height="822pt"
 viewBox="0.00 0.00 231.20 821.80" xmlns="http://www.w3.org/2000/svg" xmlns:xlink="http://www.w3.org/1999/xlink">
<g id="graph0" class="graph" transform="scale(1 1) rotate(0) translate(4 817.8)">
<title>graphviz</title>
<polygon fill="white" stroke="transparent" points="-4,4 -4,-817.8 227.2,-817.8 227.2,4 -4,4"/>
<!-- n222079 -->
<g id="node1" class="node">
<title>n222079</title>
<polygon fill="none" stroke="black" points="29,-813.8 0,-813.8 0,-784.8 29,-784.8 29,-813.8"/>
<text text-anchor="middle" x="14.5" y="-796.2" font-family="CMU Serif, Normal" font-size="12.00">0</text>
</g>
<!-- n221215 -->
<g id="node2" class="node">
<title>n221215</title>
<polygon fill="black" stroke="black" points="21.5,-764.3 7.5,-764.3 7.5,-762.3 21.5,-762.3 21.5,-764.3"/>
</g>
<!-- n222079&#45;&gt;n221215 -->
<g id="edge1" class="edge">
<title>n222079&#45;&gt;n221215</title>
<path fill="none" stroke="black" d="M14.5,-784.66C14.5,-776.56 14.5,-767.52 14.5,-764.42"/>
</g>
<!-- n221647 -->
<g id="node4" class="node">
<title>n221647</title>
<polygon fill="black" stroke="black" points="21.5,-735.5 7.5,-735.5 7.5,-733.5 21.5,-733.5 21.5,-735.5"/>
</g>
<!-- n221215&#45;&gt;n221647 -->
<g id="edge2" class="edge">
<title>n221215&#45;&gt;n221647</title>
<path fill="none" stroke="black" d="M14.5,-762.06C14.5,-757.33 14.5,-740.37 14.5,-735.7"/>
</g>
<!-- n221215lab -->
<g id="node3" class="node">
<title>n221215lab</title>
<text text-anchor="middle" x="129.7" y="-760.2" font-family="CMU Serif, Normal" font-size="12.00">EmergencyStop.Normal</text>
</g>
<!-- n221647x221791 -->
<g id="node6" class="node">
<title>n221647x221791</title>
<polygon fill="none" stroke="black" points="29,-720.2 0,-720.2 0,-691.2 29,-691.2 29,-720.2"/>
<text text-anchor="middle" x="14.5" y="-702.6" font-family="CMU Serif, Normal" font-size="12.00">1</text>
</g>
<!-- n221647&#45;&gt;n221647x221791 -->
<g id="edge3" class="edge">
<title>n221647&#45;&gt;n221647x221791</title>
<path fill="none" stroke="black" d="M14.5,-733.26C14.5,-730.94 14.5,-725.67 14.5,-720.35"/>
</g>
<!-- n221647lab -->
<g id="node5" class="node">
<title>n221647lab</title>
<text text-anchor="middle" x="129.7" y="-731.4" font-family="CMU Serif, Normal" font-size="12.00">HandlingKeyswitch.On</text>
</g>
<!-- n221647x221791xtrig -->
<g id="node7" class="node">
<title>n221647x221791xtrig</title>
<polygon fill="none" stroke="black" points="223.2,-720.2 36.2,-720.2 36.2,-691.2 223.2,-691.2 223.2,-720.2"/>
<text text-anchor="middle" x="129.7" y="-702.6" font-family="CMU Serif, Normal" font-size="12.00">OperationMode.Auto</text>
</g>
<!-- n221647x221791&#45;&gt;n221647x221791xtrig -->
<g id="edge4" class="edge">
<title>n221647x221791&#45;&gt;n221647x221791xtrig</title>
<path fill="none" stroke="black" d="M29.09,-705.7C31.27,-705.7 33.64,-705.7 36.16,-705.7"/>
</g>
<!-- n221791 -->
<g id="node8" class="node">
<title>n221791</title>
<polygon fill="black" stroke="black" points="21.5,-677.9 7.5,-677.9 7.5,-675.9 21.5,-675.9 21.5,-677.9"/>
</g>
<!-- n221647x221791&#45;&gt;n221791 -->
<g id="edge5" class="edge">
<title>n221647x221791&#45;&gt;n221791</title>
<path fill="none" stroke="black" d="M14.5,-690.96C14.5,-685.65 14.5,-680.4 14.5,-678.1"/>
</g>
<!-- n218335 -->
<g id="node10" class="node">
<title>n218335</title>
<polygon fill="black" stroke="black" points="21.5,-649.1 7.5,-649.1 7.5,-647.1 21.5,-647.1 21.5,-649.1"/>
</g>
<!-- n221791&#45;&gt;n218335 -->
<g id="edge6" class="edge">
<title>n221791&#45;&gt;n218335</title>
<path fill="none" stroke="black" d="M14.5,-675.66C14.5,-670.93 14.5,-653.97 14.5,-649.3"/>
</g>
<!-- n221791lab -->
<g id="node9" class="node">
<title>n221791lab</title>
<text text-anchor="middle" x="129.7" y="-673.8" font-family="CMU Serif, Normal" font-size="12.00">OperationMode.Auto</text>
</g>
<!-- n225247 -->
<g id="node12" class="node">
<title>n225247</title>
<polygon fill="black" stroke="black" points="21.5,-620.3 7.5,-620.3 7.5,-618.3 21.5,-618.3 21.5,-620.3"/>
</g>
<!-- n218335&#45;&gt;n225247 -->
<g id="edge7" class="edge">
<title>n218335&#45;&gt;n225247</title>
<path fill="none" stroke="black" d="M14.5,-646.86C14.5,-642.13 14.5,-625.17 14.5,-620.5"/>
</g>
<!-- n218335lab -->
<g id="node11" class="node">
<title>n218335lab</title>
<text text-anchor="middle" x="129.7" y="-645" font-family="CMU Serif, Normal" font-size="12.00">FrontDoor.Intermediate</text>
</g>
<!-- n225319 -->
<g id="node14" class="node">
<title>n225319</title>
<polygon fill="black" stroke="black" points="21.5,-591.5 7.5,-591.5 7.5,-589.5 21.5,-589.5 21.5,-591.5"/>
</g>
<!-- n225247&#45;&gt;n225319 -->
<g id="edge8" class="edge">
<title>n225247&#45;&gt;n225319</title>
<path fill="none" stroke="black" d="M14.5,-618.06C14.5,-613.33 14.5,-596.37 14.5,-591.7"/>
</g>
<!-- n225247lab -->
<g id="node13" class="node">
<title>n225247lab</title>
<text text-anchor="middle" x="129.7" y="-616.2" font-family="CMU Serif, Normal" font-size="12.00">FrontDoor.Closed</text>
</g>
<!-- n225319x142375 -->
<g id="node16" class="node">
<title>n225319x142375</title>
<polygon fill="none" stroke="black" points="29,-576.2 0,-576.2 0,-547.2 29,-547.2 29,-576.2"/>
<text text-anchor="middle" x="14.5" y="-558.6" font-family="CMU Serif, Normal" font-size="12.00">2</text>
</g>
<!-- n225319&#45;&gt;n225319x142375 -->
<g id="edge9" class="edge">
<title>n225319&#45;&gt;n225319x142375</title>
<path fill="none" stroke="black" d="M14.5,-589.26C14.5,-586.94 14.5,-581.67 14.5,-576.35"/>
</g>
<!-- n225319lab -->
<g id="node15" class="node">
<title>n225319lab</title>
<text text-anchor="middle" x="129.7" y="-587.4" font-family="CMU Serif, Normal" font-size="12.00">TransferPosition.Reached</text>
</g>
<!-- n225319x142375xtrig -->
<g id="node17" class="node">
<title>n225319x142375xtrig</title>
<polygon fill="none" stroke="black" points="223.2,-576.2 36.2,-576.2 36.2,-547.2 223.2,-547.2 223.2,-576.2"/>
<text text-anchor="middle" x="129.7" y="-558.6" font-family="CMU Serif, Normal" font-size="12.00">SideDoor.Open</text>
</g>
<!-- n225319x142375&#45;&gt;n225319x142375xtrig -->
<g id="edge10" class="edge">
<title>n225319x142375&#45;&gt;n225319x142375xtrig</title>
<path fill="none" stroke="black" d="M29.09,-561.7C31.27,-561.7 33.64,-561.7 36.16,-561.7"/>
</g>
<!-- n142375 -->
<g id="node18" class="node">
<title>n142375</title>
<polygon fill="black" stroke="black" points="21.5,-533.9 7.5,-533.9 7.5,-531.9 21.5,-531.9 21.5,-533.9"/>
</g>
<!-- n225319x142375&#45;&gt;n142375 -->
<g id="edge11" class="edge">
<title>n225319x142375&#45;&gt;n142375</title>
<path fill="none" stroke="black" d="M14.5,-546.96C14.5,-541.65 14.5,-536.4 14.5,-534.1"/>
</g>
<!-- n142375x183847 -->
<g id="node20" class="node">
<title>n142375x183847</title>
<polygon fill="none" stroke="black" points="29,-518.6 0,-518.6 0,-489.6 29,-489.6 29,-518.6"/>
<text text-anchor="middle" x="14.5" y="-501" font-family="CMU Serif, Normal" font-size="12.00">3</text>
</g>
<!-- n142375&#45;&gt;n142375x183847 -->
<g id="edge12" class="edge">
<title>n142375&#45;&gt;n142375x183847</title>
<path fill="none" stroke="black" d="M14.5,-531.66C14.5,-529.34 14.5,-524.07 14.5,-518.75"/>
</g>
<!-- n142375lab -->
<g id="node19" class="node">
<title>n142375lab</title>
<text text-anchor="middle" x="129.7" y="-529.8" font-family="CMU Serif, Normal" font-size="12.00">SideDoor.Intermediate</text>
</g>
<!-- n142375x183847xtrig -->
<g id="node21" class="node">
<title>n142375x183847xtrig</title>
<polygon fill="none" stroke="black" points="223.2,-518.6 36.2,-518.6 36.2,-489.6 223.2,-489.6 223.2,-518.6"/>
<text text-anchor="middle" x="129.7" y="-501" font-family="CMU Serif, Normal" font-size="12.00">SideDoor.Open</text>
</g>
<!-- n142375x183847&#45;&gt;n142375x183847xtrig -->
<g id="edge13" class="edge">
<title>n142375x183847&#45;&gt;n142375x183847xtrig</title>
<path fill="none" stroke="black" d="M29.09,-504.1C31.27,-504.1 33.64,-504.1 36.16,-504.1"/>
</g>
<!-- n183847 -->
<g id="node22" class="node">
<title>n183847</title>
<polygon fill="black" stroke="black" points="21.5,-476.3 7.5,-476.3 7.5,-474.3 21.5,-474.3 21.5,-476.3"/>
</g>
<!-- n142375x183847&#45;&gt;n183847 -->
<g id="edge14" class="edge">
<title>n142375x183847&#45;&gt;n183847</title>
<path fill="none" stroke="black" d="M14.5,-489.36C14.5,-484.05 14.5,-478.8 14.5,-476.5"/>
</g>
<!-- n183847x183848 -->
<g id="node24" class="node">
<title>n183847x183848</title>
<polygon fill="none" stroke="black" points="29,-461 0,-461 0,-432 29,-432 29,-461"/>
<text text-anchor="middle" x="14.5" y="-443.4" font-family="CMU Serif, Normal" font-size="12.00">4</text>
</g>
<!-- n183847&#45;&gt;n183847x183848 -->
<g id="edge15" class="edge">
<title>n183847&#45;&gt;n183847x183848</title>
<path fill="none" stroke="black" d="M14.5,-474.06C14.5,-471.74 14.5,-466.47 14.5,-461.15"/>
</g>
<!-- n183847lab -->
<g id="node23" class="node">
<title>n183847lab</title>
<text text-anchor="middle" x="129.7" y="-472.2" font-family="CMU Serif, Normal" font-size="12.00">SideDoor.Opened</text>
</g>
<!-- n183847x183848xtrig -->
<g id="node25" class="node">
<title>n183847x183848xtrig</title>
<polygon fill="none" stroke="black" points="223.2,-461 36.2,-461 36.2,-432 223.2,-432 223.2,-461"/>
<text text-anchor="middle" x="129.7" y="-443.4" font-family="CMU Serif, Normal" font-size="12.00">WorkpieceHandling.Put</text>
</g>
<!-- n183847x183848&#45;&gt;n183847x183848xtrig -->
<g id="edge16" class="edge">
<title>n183847x183848&#45;&gt;n183847x183848xtrig</title>
<path fill="none" stroke="black" d="M29.09,-446.5C31.27,-446.5 33.64,-446.5 36.16,-446.5"/>
</g>
<!-- n183848 -->
<g id="node26" class="node">
<title>n183848</title>
<polygon fill="black" stroke="black" points="21.5,-418.7 7.5,-418.7 7.5,-416.7 21.5,-416.7 21.5,-418.7"/>
</g>
<!-- n183847x183848&#45;&gt;n183848 -->
<g id="edge17" class="edge">
<title>n183847x183848&#45;&gt;n183848</title>
<path fill="none" stroke="black" d="M14.5,-431.76C14.5,-426.45 14.5,-421.2 14.5,-418.9"/>
</g>
<!-- n183852 -->
<g id="node28" class="node">
<title>n183852</title>
<polygon fill="black" stroke="black" points="21.5,-389.9 7.5,-389.9 7.5,-387.9 21.5,-387.9 21.5,-389.9"/>
</g>
<!-- n183848&#45;&gt;n183852 -->
<g id="edge18" class="edge">
<title>n183848&#45;&gt;n183852</title>
<path fill="none" stroke="black" d="M14.5,-416.46C14.5,-411.73 14.5,-394.77 14.5,-390.1"/>
</g>
<!-- n183848lab -->
<g id="node27" class="node">
<title>n183848lab</title>
<text text-anchor="middle" x="129.7" y="-414.6" font-family="CMU Serif, Normal" font-size="12.00">WorkpieceHandling.Putting</text>
</g>
<!-- n183888 -->
<g id="node30" class="node">
<title>n183888</title>
<polygon fill="black" stroke="black" points="21.5,-361.1 7.5,-361.1 7.5,-359.1 21.5,-359.1 21.5,-361.1"/>
</g>
<!-- n183852&#45;&gt;n183888 -->
<g id="edge19" class="edge">
<title>n183852&#45;&gt;n183888</title>
<path fill="none" stroke="black" d="M14.5,-387.66C14.5,-382.93 14.5,-365.97 14.5,-361.3"/>
</g>
<!-- n183852lab -->
<g id="node29" class="node">
<title>n183852lab</title>
<text text-anchor="middle" x="129.7" y="-385.8" font-family="CMU Serif, Normal" font-size="12.00">WorkpieceHandling.Table</text>
</g>
<!-- n183888x59472 -->
<g id="node32" class="node">
<title>n183888x59472</title>
<polygon fill="none" stroke="black" points="29,-345.8 0,-345.8 0,-316.8 29,-316.8 29,-345.8"/>
<text text-anchor="middle" x="14.5" y="-328.2" font-family="CMU Serif, Normal" font-size="12.00">5</text>
</g>
<!-- n183888&#45;&gt;n183888x59472 -->
<g id="edge20" class="edge">
<title>n183888&#45;&gt;n183888x59472</title>
<path fill="none" stroke="black" d="M14.5,-358.86C14.5,-356.54 14.5,-351.27 14.5,-345.95"/>
</g>
<!-- n183888lab -->
<g id="node31" class="node">
<title>n183888lab</title>
<text text-anchor="middle" x="129.7" y="-357" font-family="CMU Serif, Normal" font-size="12.00">MachiningTable.Occupied</text>
</g>
<!-- n183888x59472xtrig -->
<g id="node33" class="node">
<title>n183888x59472xtrig</title>
<polygon fill="none" stroke="black" points="223.2,-345.8 36.2,-345.8 36.2,-316.8 223.2,-316.8 223.2,-345.8"/>
<text text-anchor="middle" x="129.7" y="-328.2" font-family="CMU Serif, Normal" font-size="12.00">ClampingSystem.Close</text>
</g>
<!-- n183888x59472&#45;&gt;n183888x59472xtrig -->
<g id="edge21" class="edge">
<title>n183888x59472&#45;&gt;n183888x59472xtrig</title>
<path fill="none" stroke="black" d="M29.09,-331.3C31.27,-331.3 33.64,-331.3 36.16,-331.3"/>
</g>
<!-- n59472 -->
<g id="node34" class="node">
<title>n59472</title>
<polygon fill="black" stroke="black" points="21.5,-303.5 7.5,-303.5 7.5,-301.5 21.5,-301.5 21.5,-303.5"/>
</g>
<!-- n183888x59472&#45;&gt;n59472 -->
<g id="edge22" class="edge">
<title>n183888x59472&#45;&gt;n59472</title>
<path fill="none" stroke="black" d="M14.5,-316.56C14.5,-311.25 14.5,-306 14.5,-303.7"/>
</g>
<!-- n59472x308304 -->
<g id="node36" class="node">
<title>n59472x308304</title>
<polygon fill="none" stroke="black" points="29,-288.2 0,-288.2 0,-259.2 29,-259.2 29,-288.2"/>
<text text-anchor="middle" x="14.5" y="-270.6" font-family="CMU Serif, Normal" font-size="12.00">6</text>
</g>
<!-- n59472&#45;&gt;n59472x308304 -->
<g id="edge23" class="edge">
<title>n59472&#45;&gt;n59472x308304</title>
<path fill="none" stroke="black" d="M14.5,-301.26C14.5,-298.94 14.5,-293.67 14.5,-288.35"/>
</g>
<!-- n59472lab -->
<g id="node35" class="node">
<title>n59472lab</title>
<text text-anchor="middle" x="129.7" y="-299.4" font-family="CMU Serif, Normal" font-size="12.00">ClampingSystem.Intermediate</text>
</g>
<!-- n59472x308304xtrig -->
<g id="node37" class="node">
<title>n59472x308304xtrig</title>
<polygon fill="none" stroke="black" points="223.2,-288.2 36.2,-288.2 36.2,-259.2 223.2,-259.2 223.2,-288.2"/>
<text text-anchor="middle" x="129.7" y="-270.6" font-family="CMU Serif, Normal" font-size="12.00">ClampingSystem.Close</text>
</g>
<!-- n59472x308304&#45;&gt;n59472x308304xtrig -->
<g id="edge24" class="edge">
<title>n59472x308304&#45;&gt;n59472x308304xtrig</title>
<path fill="none" stroke="black" d="M29.09,-273.7C31.27,-273.7 33.64,-273.7 36.16,-273.7"/>
</g>
<!-- n308304 -->
<g id="node38" class="node">
<title>n308304</title>
<polygon fill="black" stroke="black" points="21.5,-245.9 7.5,-245.9 7.5,-243.9 21.5,-243.9 21.5,-245.9"/>
</g>
<!-- n59472x308304&#45;&gt;n308304 -->
<g id="edge25" class="edge">
<title>n59472x308304&#45;&gt;n308304</title>
<path fill="none" stroke="black" d="M14.5,-258.96C14.5,-253.65 14.5,-248.4 14.5,-246.1"/>
</g>
<!-- n308304x308280 -->
<g id="node40" class="node">
<title>n308304x308280</title>
<polygon fill="none" stroke="black" points="29,-230.6 0,-230.6 0,-201.6 29,-201.6 29,-230.6"/>
<text text-anchor="middle" x="14.5" y="-213" font-family="CMU Serif, Normal" font-size="12.00">7</text>
</g>
<!-- n308304&#45;&gt;n308304x308280 -->
<g id="edge26" class="edge">
<title>n308304&#45;&gt;n308304x308280</title>
<path fill="none" stroke="black" d="M14.5,-243.66C14.5,-241.34 14.5,-236.07 14.5,-230.75"/>
</g>
<!-- n308304lab -->
<g id="node39" class="node">
<title>n308304lab</title>
<text text-anchor="middle" x="129.7" y="-241.8" font-family="CMU Serif, Normal" font-size="12.00">ClampingSystem.Clamped</text>
</g>
<!-- n308304x308280xtrig -->
<g id="node41" class="node">
<title>n308304x308280xtrig</title>
<polygon fill="none" stroke="black" points="223.2,-230.6 36.2,-230.6 36.2,-201.6 223.2,-201.6 223.2,-230.6"/>
<text text-anchor="middle" x="129.7" y="-213" font-family="CMU Serif, Normal" font-size="12.00">RobotGripper.Open</text>
</g>
<!-- n308304x308280&#45;&gt;n308304x308280xtrig -->
<g id="edge27" class="edge">
<title>n308304x308280&#45;&gt;n308304x308280xtrig</title>
<path fill="none" stroke="black" d="M29.09,-216.1C31.27,-216.1 33.64,-216.1 36.16,-216.1"/>
</g>
<!-- n308280 -->
<g id="node42" class="node">
<title>n308280</title>
<polygon fill="black" stroke="black" points="21.5,-188.3 7.5,-188.3 7.5,-186.3 21.5,-186.3 21.5,-188.3"/>
</g>
<!-- n308304x308280&#45;&gt;n308280 -->
<g id="edge28" class="edge">
<title>n308304x308280&#45;&gt;n308280</title>
<path fill="none" stroke="black" d="M14.5,-201.36C14.5,-196.05 14.5,-190.8 14.5,-188.5"/>
</g>
<!-- n308280x308292 -->
<g id="node44" class="node">
<title>n308280x308292</title>
<polygon fill="none" stroke="black" points="29,-173 0,-173 0,-144 29,-144 29,-173"/>
<text text-anchor="middle" x="14.5" y="-155.4" font-family="CMU Serif, Normal" font-size="12.00">8</text>
</g>
<!-- n308280&#45;&gt;n308280x308292 -->
<g id="edge29" class="edge">
<title>n308280&#45;&gt;n308280x308292</title>
<path fill="none" stroke="black" d="M14.5,-186.06C14.5,-183.74 14.5,-178.47 14.5,-173.15"/>
</g>
<!-- n308280lab -->
<g id="node43" class="node">
<title>n308280lab</title>
<text text-anchor="middle" x="129.7" y="-184.2" font-family="CMU Serif, Normal" font-size="12.00">RobotGripper.Intermediate</text>
</g>
<!-- n308280x308292xtrig -->
<g id="node45" class="node">
<title>n308280x308292xtrig</title>
<polygon fill="none" stroke="black" points="223.2,-173 36.2,-173 36.2,-144 223.2,-144 223.2,-173"/>
<text text-anchor="middle" x="129.7" y="-155.4" font-family="CMU Serif, Normal" font-size="12.00">RobotGripper.Open</text>
</g>
<!-- n308280x308292&#45;&gt;n308280x308292xtrig -->
<g id="edge30" class="edge">
<title>n308280x308292&#45;&gt;n308280x308292xtrig</title>
<path fill="none" stroke="black" d="M29.09,-158.5C31.27,-158.5 33.64,-158.5 36.16,-158.5"/>
</g>
<!-- n308292 -->
<g id="node46" class="node">
<title>n308292</title>
<polygon fill="black" stroke="black" points="21.5,-130.7 7.5,-130.7 7.5,-128.7 21.5,-128.7 21.5,-130.7"/>
</g>
<!-- n308280x308292&#45;&gt;n308292 -->
<g id="edge31" class="edge">
<title>n308280x308292&#45;&gt;n308292</title>
<path fill="none" stroke="black" d="M14.5,-143.76C14.5,-138.45 14.5,-133.2 14.5,-130.9"/>
</g>
<!-- n308292x308291 -->
<g id="node48" class="node">
<title>n308292x308291</title>
<polygon fill="none" stroke="black" points="29,-115.4 0,-115.4 0,-86.4 29,-86.4 29,-115.4"/>
<text text-anchor="middle" x="14.5" y="-97.8" font-family="CMU Serif, Normal" font-size="12.00">9</text>
</g>
<!-- n308292&#45;&gt;n308292x308291 -->
<g id="edge32" class="edge">
<title>n308292&#45;&gt;n308292x308291</title>
<path fill="none" stroke="black" d="M14.5,-128.46C14.5,-126.14 14.5,-120.87 14.5,-115.55"/>
</g>
<!-- n308292lab -->
<g id="node47" class="node">
<title>n308292lab</title>
<text text-anchor="middle" x="129.7" y="-126.6" font-family="CMU Serif, Normal" font-size="12.00">RobotGripper.Unclamped</text>
</g>
<!-- n308292x308291xtrig -->
<g id="node49" class="node">
<title>n308292x308291xtrig</title>
<polygon fill="none" stroke="black" points="223.2,-115.4 36.2,-115.4 36.2,-86.4 223.2,-86.4 223.2,-115.4"/>
<text text-anchor="middle" x="129.7" y="-97.8" font-family="CMU Serif, Normal" font-size="12.00">WorkpieceHandling.Retract</text>
</g>
<!-- n308292x308291&#45;&gt;n308292x308291xtrig -->
<g id="edge33" class="edge">
<title>n308292x308291&#45;&gt;n308292x308291xtrig</title>
<path fill="none" stroke="black" d="M29.09,-100.9C31.27,-100.9 33.64,-100.9 36.16,-100.9"/>
</g>
<!-- n308291 -->
<g id="node50" class="node">
<title>n308291</title>
<polygon fill="black" stroke="black" points="21.5,-73.1 7.5,-73.1 7.5,-71.1 21.5,-71.1 21.5,-73.1"/>
</g>
<!-- n308292x308291&#45;&gt;n308291 -->
<g id="edge34" class="edge">
<title>n308292x308291&#45;&gt;n308291</title>
<path fill="none" stroke="black" d="M14.5,-86.16C14.5,-80.85 14.5,-75.6 14.5,-73.3"/>
</g>
<!-- n308285 -->
<g id="node52" class="node">
<title>n308285</title>
<polygon fill="black" stroke="black" points="21.5,-44.3 7.5,-44.3 7.5,-42.3 21.5,-42.3 21.5,-44.3"/>
</g>
<!-- n308291&#45;&gt;n308285 -->
<g id="edge35" class="edge">
<title>n308291&#45;&gt;n308285</title>
<path fill="none" stroke="black" d="M14.5,-70.86C14.5,-66.13 14.5,-49.17 14.5,-44.5"/>
</g>
<!-- n308291lab -->
<g id="node51" class="node">
<title>n308291lab</title>
<text text-anchor="middle" x="129.7" y="-69" font-family="CMU Serif, Normal" font-size="12.00">WorkpieceHandling.Retracting</text>
</g>
<!-- n308281 -->
<g id="node54" class="node">
<title>n308281</title>
<polygon fill="black" stroke="black" points="21.5,-15.5 7.5,-15.5 7.5,-13.5 21.5,-13.5 21.5,-15.5"/>
</g>
<!-- n308285&#45;&gt;n308281 -->
<g id="edge36" class="edge">
<title>n308285&#45;&gt;n308281</title>
<path fill="none" stroke="black" d="M14.5,-42.06C14.5,-37.33 14.5,-20.37 14.5,-15.7"/>
</g>
<!-- n308285lab -->
<g id="node53" class="node">
<title>n308285lab</title>
<text text-anchor="middle" x="129.7" y="-40.2" font-family="CMU Serif, Normal" font-size="12.00">RobotLoad.Empty</text>
</g>
<!-- n308281lab -->
<g id="node55" class="node">
<title>n308281lab</title>
<text text-anchor="middle" x="129.7" y="-11.4" font-family="CMU Serif, Normal" font-size="12.00">WorkpieceHandling.Outside</text>
</g>
</g>
</svg>
