<?xml version="1.0" encoding="UTF-8" standalone="no"?>
<!DOCTYPE svg PUBLIC "-//W3C//DTD SVG 1.1//EN"
 "http://www.w3.org/Graphics/SVG/1.1/DTD/svg11.dtd">
<!-- Generated by graphviz version 2.43.0 (0)
 -->
<!-- Title: graphviz Pages: 1 -->
<svg width="231pt" height="620pt"
 viewBox="0.00 0.00 231.20 620.20" xmlns="http://www.w3.org/2000/svg" xmlns:xlink="http://www.w3.org/1999/xlink">
<g id="graph0" class="graph" transform="scale(1 1) rotate(0) translate(4 616.2)">
<title>graphviz</title>
<polygon fill="white" stroke="transparent" points="-4,4 -4,-616.2 227.2,-616.2 227.2,4 -4,4"/>
<!-- n372217 -->
<g id="node1" class="node">
<title>n372217</title>
<polygon fill="none" stroke="black" points="29,-612.2 0,-612.2 0,-583.2 29,-583.2 29,-612.2"/>
<text text-anchor="middle" x="14.5" y="-594.6" font-family="CMU Serif, Normal" font-size="12.00">0</text>
</g>
<!-- n372217x289273 -->
<g id="node2" class="node">
<title>n372217x289273</title>
<polygon fill="none" stroke="black" points="29,-576.2 0,-576.2 0,-547.2 29,-547.2 29,-576.2"/>
<text text-anchor="middle" x="14.5" y="-558.6" font-family="CMU Serif, Normal" font-size="12.00">1</text>
</g>
<!-- n372217&#45;&gt;n372217x289273 -->
<g id="edge1" class="edge">
<title>n372217&#45;&gt;n372217x289273</title>
<path fill="none" stroke="black" d="M14.5,-583.06C14.5,-580.88 14.5,-578.63 14.5,-576.45"/>
</g>
<!-- n372217x289273xtrig -->
<g id="node3" class="node">
<title>n372217x289273xtrig</title>
<polygon fill="none" stroke="black" points="223.2,-576.2 36.2,-576.2 36.2,-547.2 223.2,-547.2 223.2,-576.2"/>
<text text-anchor="middle" x="129.7" y="-558.6" font-family="CMU Serif, Normal" font-size="12.00">SideDoor.Open</text>
</g>
<!-- n372217x289273&#45;&gt;n372217x289273xtrig -->
<g id="edge2" class="edge">
<title>n372217x289273&#45;&gt;n372217x289273xtrig</title>
<path fill="none" stroke="black" d="M29.09,-561.7C31.27,-561.7 33.64,-561.7 36.16,-561.7"/>
</g>
<!-- n289273 -->
<g id="node4" class="node">
<title>n289273</title>
<polygon fill="black" stroke="black" points="21.5,-533.9 7.5,-533.9 7.5,-531.9 21.5,-531.9 21.5,-533.9"/>
</g>
<!-- n372217x289273&#45;&gt;n289273 -->
<g id="edge3" class="edge">
<title>n372217x289273&#45;&gt;n289273</title>
<path fill="none" stroke="black" d="M14.5,-546.96C14.5,-541.65 14.5,-536.4 14.5,-534.1"/>
</g>
<!-- n289273x330745 -->
<g id="node6" class="node">
<title>n289273x330745</title>
<polygon fill="none" stroke="black" points="29,-518.6 0,-518.6 0,-489.6 29,-489.6 29,-518.6"/>
<text text-anchor="middle" x="14.5" y="-501" font-family="CMU Serif, Normal" font-size="12.00">2</text>
</g>
<!-- n289273&#45;&gt;n289273x330745 -->
<g id="edge4" class="edge">
<title>n289273&#45;&gt;n289273x330745</title>
<path fill="none" stroke="black" d="M14.5,-531.66C14.5,-529.34 14.5,-524.07 14.5,-518.75"/>
</g>
<!-- n289273lab -->
<g id="node5" class="node">
<title>n289273lab</title>
<text text-anchor="middle" x="129.7" y="-529.8" font-family="CMU Serif, Normal" font-size="12.00">SideDoor.Intermediate</text>
</g>
<!-- n289273x330745xtrig -->
<g id="node7" class="node">
<title>n289273x330745xtrig</title>
<polygon fill="none" stroke="black" points="223.2,-518.6 36.2,-518.6 36.2,-489.6 223.2,-489.6 223.2,-518.6"/>
<text text-anchor="middle" x="129.7" y="-501" font-family="CMU Serif, Normal" font-size="12.00">SideDoor.Open</text>
</g>
<!-- n289273x330745&#45;&gt;n289273x330745xtrig -->
<g id="edge5" class="edge">
<title>n289273x330745&#45;&gt;n289273x330745xtrig</title>
<path fill="none" stroke="black" d="M29.09,-504.1C31.27,-504.1 33.64,-504.1 36.16,-504.1"/>
</g>
<!-- n330745 -->
<g id="node8" class="node">
<title>n330745</title>
<polygon fill="black" stroke="black" points="21.5,-476.3 7.5,-476.3 7.5,-474.3 21.5,-474.3 21.5,-476.3"/>
</g>
<!-- n289273x330745&#45;&gt;n330745 -->
<g id="edge6" class="edge">
<title>n289273x330745&#45;&gt;n330745</title>
<path fill="none" stroke="black" d="M14.5,-489.36C14.5,-484.05 14.5,-478.8 14.5,-476.5"/>
</g>
<!-- n330745x330748 -->
<g id="node10" class="node">
<title>n330745x330748</title>
<polygon fill="none" stroke="black" points="29,-461 0,-461 0,-432 29,-432 29,-461"/>
<text text-anchor="middle" x="14.5" y="-443.4" font-family="CMU Serif, Normal" font-size="12.00">3</text>
</g>
<!-- n330745&#45;&gt;n330745x330748 -->
<g id="edge7" class="edge">
<title>n330745&#45;&gt;n330745x330748</title>
<path fill="none" stroke="black" d="M14.5,-474.06C14.5,-471.74 14.5,-466.47 14.5,-461.15"/>
</g>
<!-- n330745lab -->
<g id="node9" class="node">
<title>n330745lab</title>
<text text-anchor="middle" x="129.7" y="-472.2" font-family="CMU Serif, Normal" font-size="12.00">SideDoor.Opened</text>
</g>
<!-- n330745x330748xtrig -->
<g id="node11" class="node">
<title>n330745x330748xtrig</title>
<polygon fill="none" stroke="black" points="223.2,-461 36.2,-461 36.2,-432 223.2,-432 223.2,-461"/>
<text text-anchor="middle" x="129.7" y="-443.4" font-family="CMU Serif, Normal" font-size="12.00">WorkpieceHandling.Approach</text>
</g>
<!-- n330745x330748&#45;&gt;n330745x330748xtrig -->
<g id="edge8" class="edge">
<title>n330745x330748&#45;&gt;n330745x330748xtrig</title>
<path fill="none" stroke="black" d="M29.09,-446.5C31.27,-446.5 33.64,-446.5 36.16,-446.5"/>
</g>
<!-- n330748 -->
<g id="node12" class="node">
<title>n330748</title>
<polygon fill="black" stroke="black" points="21.5,-418.7 7.5,-418.7 7.5,-416.7 21.5,-416.7 21.5,-418.7"/>
</g>
<!-- n330745x330748&#45;&gt;n330748 -->
<g id="edge9" class="edge">
<title>n330745x330748&#45;&gt;n330748</title>
<path fill="none" stroke="black" d="M14.5,-431.76C14.5,-426.45 14.5,-421.2 14.5,-418.9"/>
</g>
<!-- n330750 -->
<g id="node14" class="node">
<title>n330750</title>
<polygon fill="black" stroke="black" points="21.5,-389.9 7.5,-389.9 7.5,-387.9 21.5,-387.9 21.5,-389.9"/>
</g>
<!-- n330748&#45;&gt;n330750 -->
<g id="edge10" class="edge">
<title>n330748&#45;&gt;n330750</title>
<path fill="none" stroke="black" d="M14.5,-416.46C14.5,-411.73 14.5,-394.77 14.5,-390.1"/>
</g>
<!-- n330748lab -->
<g id="node13" class="node">
<title>n330748lab</title>
<text text-anchor="middle" x="129.7" y="-414.6" font-family="CMU Serif, Normal" font-size="12.00">WorkpieceHandling.Approaching</text>
</g>
<!-- n330750x81918 -->
<g id="node16" class="node">
<title>n330750x81918</title>
<polygon fill="none" stroke="black" points="29,-374.6 0,-374.6 0,-345.6 29,-345.6 29,-374.6"/>
<text text-anchor="middle" x="14.5" y="-357" font-family="CMU Serif, Normal" font-size="12.00">4</text>
</g>
<!-- n330750&#45;&gt;n330750x81918 -->
<g id="edge11" class="edge">
<title>n330750&#45;&gt;n330750x81918</title>
<path fill="none" stroke="black" d="M14.5,-387.66C14.5,-385.34 14.5,-380.07 14.5,-374.75"/>
</g>
<!-- n330750lab -->
<g id="node15" class="node">
<title>n330750lab</title>
<text text-anchor="middle" x="129.7" y="-385.8" font-family="CMU Serif, Normal" font-size="12.00">WorkpieceHandling.Table</text>
</g>
<!-- n330750x81918xtrig -->
<g id="node17" class="node">
<title>n330750x81918xtrig</title>
<polygon fill="none" stroke="black" points="223.2,-374.6 36.2,-374.6 36.2,-345.6 223.2,-345.6 223.2,-374.6"/>
<text text-anchor="middle" x="129.7" y="-357" font-family="CMU Serif, Normal" font-size="12.00">ClampingSystem.Open</text>
</g>
<!-- n330750x81918&#45;&gt;n330750x81918xtrig -->
<g id="edge12" class="edge">
<title>n330750x81918&#45;&gt;n330750x81918xtrig</title>
<path fill="none" stroke="black" d="M29.09,-360.1C31.27,-360.1 33.64,-360.1 36.16,-360.1"/>
</g>
<!-- n81918 -->
<g id="node18" class="node">
<title>n81918</title>
<polygon fill="black" stroke="black" points="21.5,-332.3 7.5,-332.3 7.5,-330.3 21.5,-330.3 21.5,-332.3"/>
</g>
<!-- n330750x81918&#45;&gt;n81918 -->
<g id="edge13" class="edge">
<title>n330750x81918&#45;&gt;n81918</title>
<path fill="none" stroke="black" d="M14.5,-345.36C14.5,-340.05 14.5,-334.8 14.5,-332.5"/>
</g>
<!-- n81918x206334 -->
<g id="node20" class="node">
<title>n81918x206334</title>
<polygon fill="none" stroke="black" points="29,-317 0,-317 0,-288 29,-288 29,-317"/>
<text text-anchor="middle" x="14.5" y="-299.4" font-family="CMU Serif, Normal" font-size="12.00">5</text>
</g>
<!-- n81918&#45;&gt;n81918x206334 -->
<g id="edge14" class="edge">
<title>n81918&#45;&gt;n81918x206334</title>
<path fill="none" stroke="black" d="M14.5,-330.06C14.5,-327.74 14.5,-322.47 14.5,-317.15"/>
</g>
<!-- n81918lab -->
<g id="node19" class="node">
<title>n81918lab</title>
<text text-anchor="middle" x="129.7" y="-328.2" font-family="CMU Serif, Normal" font-size="12.00">ClampingSystem.Intermediate</text>
</g>
<!-- n81918x206334xtrig -->
<g id="node21" class="node">
<title>n81918x206334xtrig</title>
<polygon fill="none" stroke="black" points="223.2,-317 36.2,-317 36.2,-288 223.2,-288 223.2,-317"/>
<text text-anchor="middle" x="129.7" y="-299.4" font-family="CMU Serif, Normal" font-size="12.00">ClampingSystem.Open</text>
</g>
<!-- n81918x206334&#45;&gt;n81918x206334xtrig -->
<g id="edge15" class="edge">
<title>n81918x206334&#45;&gt;n81918x206334xtrig</title>
<path fill="none" stroke="black" d="M29.09,-302.5C31.27,-302.5 33.64,-302.5 36.16,-302.5"/>
</g>
<!-- n206334 -->
<g id="node22" class="node">
<title>n206334</title>
<polygon fill="black" stroke="black" points="21.5,-274.7 7.5,-274.7 7.5,-272.7 21.5,-272.7 21.5,-274.7"/>
</g>
<!-- n81918x206334&#45;&gt;n206334 -->
<g id="edge16" class="edge">
<title>n81918x206334&#45;&gt;n206334</title>
<path fill="none" stroke="black" d="M14.5,-287.76C14.5,-282.45 14.5,-277.2 14.5,-274.9"/>
</g>
<!-- n206334x206322 -->
<g id="node24" class="node">
<title>n206334x206322</title>
<polygon fill="none" stroke="black" points="29,-259.4 0,-259.4 0,-230.4 29,-230.4 29,-259.4"/>
<text text-anchor="middle" x="14.5" y="-241.8" font-family="CMU Serif, Normal" font-size="12.00">6</text>
</g>
<!-- n206334&#45;&gt;n206334x206322 -->
<g id="edge17" class="edge">
<title>n206334&#45;&gt;n206334x206322</title>
<path fill="none" stroke="black" d="M14.5,-272.46C14.5,-270.14 14.5,-264.87 14.5,-259.55"/>
</g>
<!-- n206334lab -->
<g id="node23" class="node">
<title>n206334lab</title>
<text text-anchor="middle" x="129.7" y="-270.6" font-family="CMU Serif, Normal" font-size="12.00">ClampingSystem.Unclamped</text>
</g>
<!-- n206334x206322xtrig -->
<g id="node25" class="node">
<title>n206334x206322xtrig</title>
<polygon fill="none" stroke="black" points="223.2,-259.4 36.2,-259.4 36.2,-230.4 223.2,-230.4 223.2,-259.4"/>
<text text-anchor="middle" x="129.7" y="-241.8" font-family="CMU Serif, Normal" font-size="12.00">RobotGripper.Close</text>
</g>
<!-- n206334x206322&#45;&gt;n206334x206322xtrig -->
<g id="edge18" class="edge">
<title>n206334x206322&#45;&gt;n206334x206322xtrig</title>
<path fill="none" stroke="black" d="M29.09,-244.9C31.27,-244.9 33.64,-244.9 36.16,-244.9"/>
</g>
<!-- n206322 -->
<g id="node26" class="node">
<title>n206322</title>
<polygon fill="black" stroke="black" points="21.5,-217.1 7.5,-217.1 7.5,-215.1 21.5,-215.1 21.5,-217.1"/>
</g>
<!-- n206334x206322&#45;&gt;n206322 -->
<g id="edge19" class="edge">
<title>n206334x206322&#45;&gt;n206322</title>
<path fill="none" stroke="black" d="M14.5,-230.16C14.5,-224.85 14.5,-219.6 14.5,-217.3"/>
</g>
<!-- n206322x206346 -->
<g id="node28" class="node">
<title>n206322x206346</title>
<polygon fill="none" stroke="black" points="29,-201.8 0,-201.8 0,-172.8 29,-172.8 29,-201.8"/>
<text text-anchor="middle" x="14.5" y="-184.2" font-family="CMU Serif, Normal" font-size="12.00">7</text>
</g>
<!-- n206322&#45;&gt;n206322x206346 -->
<g id="edge20" class="edge">
<title>n206322&#45;&gt;n206322x206346</title>
<path fill="none" stroke="black" d="M14.5,-214.86C14.5,-212.54 14.5,-207.27 14.5,-201.95"/>
</g>
<!-- n206322lab -->
<g id="node27" class="node">
<title>n206322lab</title>
<text text-anchor="middle" x="129.7" y="-213" font-family="CMU Serif, Normal" font-size="12.00">RobotGripper.Intermediate</text>
</g>
<!-- n206322x206346xtrig -->
<g id="node29" class="node">
<title>n206322x206346xtrig</title>
<polygon fill="none" stroke="black" points="223.2,-201.8 36.2,-201.8 36.2,-172.8 223.2,-172.8 223.2,-201.8"/>
<text text-anchor="middle" x="129.7" y="-184.2" font-family="CMU Serif, Normal" font-size="12.00">RobotGripper.Close</text>
</g>
<!-- n206322x206346&#45;&gt;n206322x206346xtrig -->
<g id="edge21" class="edge">
<title>n206322x206346&#45;&gt;n206322x206346xtrig</title>
<path fill="none" stroke="black" d="M29.09,-187.3C31.27,-187.3 33.64,-187.3 36.16,-187.3"/>
</g>
<!-- n206346 -->
<g id="node30" class="node">
<title>n206346</title>
<polygon fill="black" stroke="black" points="21.5,-159.5 7.5,-159.5 7.5,-157.5 21.5,-157.5 21.5,-159.5"/>
</g>
<!-- n206322x206346&#45;&gt;n206346 -->
<g id="edge22" class="edge">
<title>n206322x206346&#45;&gt;n206346</title>
<path fill="none" stroke="black" d="M14.5,-172.56C14.5,-167.25 14.5,-162 14.5,-159.7"/>
</g>
<!-- n206346x206343 -->
<g id="node32" class="node">
<title>n206346x206343</title>
<polygon fill="none" stroke="black" points="29,-144.2 0,-144.2 0,-115.2 29,-115.2 29,-144.2"/>
<text text-anchor="middle" x="14.5" y="-126.6" font-family="CMU Serif, Normal" font-size="12.00">8</text>
</g>
<!-- n206346&#45;&gt;n206346x206343 -->
<g id="edge23" class="edge">
<title>n206346&#45;&gt;n206346x206343</title>
<path fill="none" stroke="black" d="M14.5,-157.26C14.5,-154.94 14.5,-149.67 14.5,-144.35"/>
</g>
<!-- n206346lab -->
<g id="node31" class="node">
<title>n206346lab</title>
<text text-anchor="middle" x="129.7" y="-155.4" font-family="CMU Serif, Normal" font-size="12.00">RobotGripper.Clamped</text>
</g>
<!-- n206346x206343xtrig -->
<g id="node33" class="node">
<title>n206346x206343xtrig</title>
<polygon fill="none" stroke="black" points="223.2,-144.2 36.2,-144.2 36.2,-115.2 223.2,-115.2 223.2,-144.2"/>
<text text-anchor="middle" x="129.7" y="-126.6" font-family="CMU Serif, Normal" font-size="12.00">WorkpieceHandling.Lift</text>
</g>
<!-- n206346x206343&#45;&gt;n206346x206343xtrig -->
<g id="edge24" class="edge">
<title>n206346x206343&#45;&gt;n206346x206343xtrig</title>
<path fill="none" stroke="black" d="M29.09,-129.7C31.27,-129.7 33.64,-129.7 36.16,-129.7"/>
</g>
<!-- n206343 -->
<g id="node34" class="node">
<title>n206343</title>
<polygon fill="black" stroke="black" points="21.5,-101.9 7.5,-101.9 7.5,-99.9 21.5,-99.9 21.5,-101.9"/>
</g>
<!-- n206346x206343&#45;&gt;n206343 -->
<g id="edge25" class="edge">
<title>n206346x206343&#45;&gt;n206343</title>
<path fill="none" stroke="black" d="M14.5,-114.96C14.5,-109.65 14.5,-104.4 14.5,-102.1"/>
</g>
<!-- n206307 -->
<g id="node36" class="node">
<title>n206307</title>
<polygon fill="black" stroke="black" points="21.5,-73.1 7.5,-73.1 7.5,-71.1 21.5,-71.1 21.5,-73.1"/>
</g>
<!-- n206343&#45;&gt;n206307 -->
<g id="edge26" class="edge">
<title>n206343&#45;&gt;n206307</title>
<path fill="none" stroke="black" d="M14.5,-99.66C14.5,-94.93 14.5,-77.97 14.5,-73.3"/>
</g>
<!-- n206343lab -->
<g id="node35" class="node">
<title>n206343lab</title>
<text text-anchor="middle" x="129.7" y="-97.8" font-family="CMU Serif, Normal" font-size="12.00">WorkpieceHandling.Lifting</text>
</g>
<!-- n206313 -->
<g id="node38" class="node">
<title>n206313</title>
<polygon fill="black" stroke="black" points="21.5,-44.3 7.5,-44.3 7.5,-42.3 21.5,-42.3 21.5,-44.3"/>
</g>
<!-- n206307&#45;&gt;n206313 -->
<g id="edge27" class="edge">
<title>n206307&#45;&gt;n206313</title>
<path fill="none" stroke="black" d="M14.5,-70.86C14.5,-66.13 14.5,-49.17 14.5,-44.5"/>
</g>
<!-- n206307lab -->
<g id="node37" class="node">
<title>n206307lab</title>
<text text-anchor="middle" x="129.7" y="-69" font-family="CMU Serif, Normal" font-size="12.00">MachiningTable.Empty</text>
</g>
<!-- n206311 -->
<g id="node40" class="node">
<title>n206311</title>
<polygon fill="black" stroke="black" points="21.5,-15.5 7.5,-15.5 7.5,-13.5 21.5,-13.5 21.5,-15.5"/>
</g>
<!-- n206313&#45;&gt;n206311 -->
<g id="edge28" class="edge">
<title>n206313&#45;&gt;n206311</title>
<path fill="none" stroke="black" d="M14.5,-42.06C14.5,-37.33 14.5,-20.37 14.5,-15.7"/>
</g>
<!-- n206313lab -->
<g id="node39" class="node">
<title>n206313lab</title>
<text text-anchor="middle" x="129.7" y="-40.2" font-family="CMU Serif, Normal" font-size="12.00">RobotLoad.Occupied</text>
</g>
<!-- n206311lab -->
<g id="node41" class="node">
<title>n206311lab</title>
<text text-anchor="middle" x="129.7" y="-11.4" font-family="CMU Serif, Normal" font-size="12.00">WorkpieceHandling.Outside</text>
</g>
</g>
</svg>
